<svg width="22" height="20" viewBox="0 0 22 20" fill="none" xmlns="http://www.w3.org/2000/svg">
<path d="M17 12V15H15.5H14V17H17V20H19V17H22V15H19V12H17Z" fill="#9A79DA"/>
<path fill-rule="evenodd" clip-rule="evenodd" d="M0 1C0 0.447716 0.447715 0 1 0H19C19.5523 0 20 0.447715 20 1V10.3414C19.3744 10.1203 18.7013 10 18 10C14.6863 10 12 12.6863 12 16C12 16.7013 12.1203 17.3744 12.3414 18H1C0.447715 18 0 17.5523 0 17V1ZM10 4L11.3505 7.64955L15 9L11.3505 10.3505L10 14L8.64955 10.3505L5 9L8.64955 7.64955L10 4Z" fill="#9A79DA"/>
</svg>
