<svg width="40" height="40" viewBox="0 0 40 40" fill="none" xmlns="http://www.w3.org/2000/svg">
<g clip-path="url(#clip0_1765_4741)">
<path d="M33.335 3.33008H6.66829C4.83496 3.33008 3.33496 4.83008 3.33496 6.66341V32.6467C3.33496 34.1301 5.13496 34.8801 6.18496 33.8301L10.0016 29.9967H33.335C35.1683 29.9967 36.6683 28.4967 36.6683 26.6634V6.66341C36.6683 4.83008 35.1683 3.33008 33.335 3.33008ZM22.6183 19.2801L20.7516 23.3467C20.4516 23.9967 19.535 23.9967 19.235 23.3467L17.3683 19.2801L13.3016 17.4134C12.6516 17.1134 12.6516 16.1967 13.3016 15.8967L17.3683 14.0301L19.235 9.96341C19.535 9.31341 20.4516 9.31341 20.7516 9.96341L22.6183 14.0301L26.685 15.8967C27.335 16.1967 27.335 17.1134 26.685 17.4134L22.6183 19.2801Z" fill="url(#paint0_linear_1765_4741)"/>
</g>
<defs>
<linearGradient id="paint0_linear_1765_4741" x1="45.0016" y1="34.9967" x2="-3.33171" y2="-0.836586" gradientUnits="userSpaceOnUse">
<stop stop-color="#F6A19E"/>
<stop offset="0.0001" stop-color="#F68B87"/>
<stop offset="1" stop-color="#D75A56"/>
</linearGradient>
<clipPath id="clip0_1765_4741">
<rect width="40" height="40" fill="white"/>
</clipPath>
</defs>
</svg>
