<svg width="48" height="48" viewBox="0 0 48 48" fill="none" xmlns="http://www.w3.org/2000/svg">
<path d="M15.7251 21H8.40307V19.124C12.4491 16.198 13.2051 15.554 13.2051 14.63C13.2051 13.986 12.6031 13.65 11.9171 13.65C10.8811 13.65 10.0971 14.042 9.42507 14.672L8.09507 13.076C9.08907 11.984 10.5731 11.522 11.8751 11.522C14.0731 11.522 15.6551 12.754 15.6551 14.63C15.6551 16.058 14.6331 17.276 12.3091 18.9H15.7251V21ZM20.799 21.168C18.069 21.168 16.795 18.802 16.795 16.338C16.795 13.874 18.069 11.522 20.799 11.522C23.529 11.522 24.803 13.874 24.803 16.338C24.803 18.802 23.529 21.168 20.799 21.168ZM20.799 19.04C21.919 19.04 22.367 17.99 22.367 16.338C22.367 14.686 21.919 13.65 20.799 13.65C19.679 13.65 19.231 14.686 19.231 16.338C19.231 17.99 19.679 19.04 20.799 19.04ZM33.2453 21H25.9233V19.124C29.9693 16.198 30.7253 15.554 30.7253 14.63C30.7253 13.986 30.1233 13.65 29.4373 13.65C28.4013 13.65 27.6173 14.042 26.9453 14.672L25.6153 13.076C26.6093 11.984 28.0933 11.522 29.3953 11.522C31.5933 11.522 33.1753 12.754 33.1753 14.63C33.1753 16.058 32.1533 17.276 29.8293 18.9H33.2453V21ZM39.3692 21H36.9612V14.742L35.3932 16.324L34.0212 14.882L37.2832 11.662H39.3692V21Z" fill="url(#paint0_linear_664_2608)"/>
<path d="M11.2859 34L10.7469 32.592H7.27089L6.73189 34H5.32389L8.20589 26.663H9.81189L12.6939 34H11.2859ZM9.00889 27.752L7.63389 31.459H10.3839L9.00889 27.752ZM18.0421 34L16.8101 30.106L15.5781 34H14.3681L12.7181 28.687H13.9171L15.0391 32.548L16.3041 28.687H17.3161L18.5811 32.548L19.7031 28.687H20.9021L19.2521 34H18.0421ZM25.0591 34V33.428C24.6631 33.879 24.0471 34.132 23.3431 34.132C22.4741 34.132 21.4951 33.549 21.4951 32.372C21.4951 31.151 22.4741 30.645 23.3431 30.645C24.0581 30.645 24.6741 30.876 25.0591 31.327V30.535C25.0591 29.919 24.5531 29.545 23.8161 29.545C23.2221 29.545 22.7051 29.765 22.2431 30.216L21.7701 29.413C22.3861 28.83 23.1561 28.555 24.0031 28.555C25.1801 28.555 26.2141 29.05 26.2141 30.48V34H25.0591ZM25.0591 32.79V31.987C24.7951 31.624 24.3001 31.437 23.7941 31.437C23.1451 31.437 22.6611 31.811 22.6611 32.394C22.6611 32.966 23.1451 33.34 23.7941 33.34C24.3001 33.34 24.7951 33.153 25.0591 32.79ZM27.8216 34V28.687H28.9766V29.468C29.3726 28.962 30.0106 28.566 30.7036 28.566V29.71C30.6046 29.688 30.4836 29.677 30.3406 29.677C29.8566 29.677 29.2076 30.007 28.9766 30.381V34H27.8216ZM35.485 34V33.274C35.078 33.802 34.462 34.132 33.78 34.132C32.416 34.132 31.415 33.098 31.415 31.349C31.415 29.633 32.405 28.555 33.78 28.555C34.44 28.555 35.056 28.863 35.485 29.424V26.663H36.64V34H35.485ZM35.485 32.405V30.293C35.221 29.897 34.66 29.578 34.11 29.578C33.197 29.578 32.614 30.315 32.614 31.349C32.614 32.372 33.197 33.109 34.11 33.109C34.66 33.109 35.221 32.801 35.485 32.405ZM37.7846 33.307L38.3126 32.471C38.6866 32.856 39.4236 33.219 40.1166 33.219C40.8096 33.219 41.1616 32.966 41.1616 32.57C41.1616 32.108 40.6006 31.943 39.9516 31.8C39.0386 31.602 37.9496 31.36 37.9496 30.172C37.9496 29.303 38.6976 28.555 40.0396 28.555C40.9416 28.555 41.6236 28.874 42.1076 29.303L41.6236 30.117C41.3046 29.754 40.7106 29.479 40.0506 29.479C39.4456 29.479 39.0606 29.699 39.0606 30.073C39.0606 30.48 39.5886 30.623 40.2156 30.766C41.1396 30.964 42.2726 31.228 42.2726 32.482C42.2726 33.417 41.4916 34.132 40.0616 34.132C39.1596 34.132 38.3346 33.846 37.7846 33.307Z" fill="url(#paint1_linear_664_2608)"/>
<defs>
<linearGradient id="paint0_linear_664_2608" x1="4" y1="10" x2="6.80321" y2="29.3802" gradientUnits="userSpaceOnUse">
<stop stop-color="#9D6822"/>
<stop offset="1" stop-color="#CB8F3F"/>
</linearGradient>
<linearGradient id="paint1_linear_664_2608" x1="4" y1="24.5" x2="8.63471" y2="42.9054" gradientUnits="userSpaceOnUse">
<stop stop-color="#9D6822"/>
<stop offset="1" stop-color="#CB8F3F"/>
</linearGradient>
</defs>
</svg>
