<svg width="48" height="48" viewBox="0 0 48 48" fill="none" xmlns="http://www.w3.org/2000/svg">
<path d="M14.604 21H7.28198V19.124C11.328 16.198 12.084 15.554 12.084 14.63C12.084 13.986 11.482 13.65 10.796 13.65C9.75998 13.65 8.97598 14.042 8.30398 14.672L6.97398 13.076C7.96798 11.984 9.45198 11.522 10.754 11.522C12.952 11.522 14.534 12.754 14.534 14.63C14.534 16.058 13.512 17.276 11.188 18.9H14.604V21ZM19.6779 21.168C16.9479 21.168 15.6739 18.802 15.6739 16.338C15.6739 13.874 16.9479 11.522 19.6779 11.522C22.4079 11.522 23.6819 13.874 23.6819 16.338C23.6819 18.802 22.4079 21.168 19.6779 21.168ZM19.6779 19.04C20.7979 19.04 21.2459 17.99 21.2459 16.338C21.2459 14.686 20.7979 13.65 19.6779 13.65C18.5579 13.65 18.1099 14.686 18.1099 16.338C18.1099 17.99 18.5579 19.04 19.6779 19.04ZM32.1242 21H24.8022V19.124C28.8482 16.198 29.6042 15.554 29.6042 14.63C29.6042 13.986 29.0022 13.65 28.3162 13.65C27.2802 13.65 26.4962 14.042 25.8242 14.672L24.4942 13.076C25.4882 11.984 26.9722 11.522 28.2742 11.522C30.4722 11.522 32.0542 12.754 32.0542 14.63C32.0542 16.058 31.0322 17.276 28.7082 18.9H32.1242V21ZM40.7681 21H33.4461V19.124C37.4921 16.198 38.2481 15.554 38.2481 14.63C38.2481 13.986 37.6461 13.65 36.9601 13.65C35.9241 13.65 35.1401 14.042 34.4681 14.672L33.1381 13.076C34.1321 11.984 35.6161 11.522 36.9181 11.522C39.1161 11.522 40.6981 12.754 40.6981 14.63C40.6981 16.058 39.6761 17.276 37.3521 18.9H40.7681V21Z" fill="url(#paint0_linear_664_2611)"/>
<path d="M11.2859 34L10.7469 32.592H7.27089L6.73189 34H5.32389L8.20589 26.663H9.81189L12.6939 34H11.2859ZM9.00889 27.752L7.63389 31.459H10.3839L9.00889 27.752ZM18.0421 34L16.8101 30.106L15.5781 34H14.3681L12.7181 28.687H13.9171L15.0391 32.548L16.3041 28.687H17.3161L18.5811 32.548L19.7031 28.687H20.9021L19.2521 34H18.0421ZM25.0591 34V33.428C24.6631 33.879 24.0471 34.132 23.3431 34.132C22.4741 34.132 21.4951 33.549 21.4951 32.372C21.4951 31.151 22.4741 30.645 23.3431 30.645C24.0581 30.645 24.6741 30.876 25.0591 31.327V30.535C25.0591 29.919 24.5531 29.545 23.8161 29.545C23.2221 29.545 22.7051 29.765 22.2431 30.216L21.7701 29.413C22.3861 28.83 23.1561 28.555 24.0031 28.555C25.1801 28.555 26.2141 29.05 26.2141 30.48V34H25.0591ZM25.0591 32.79V31.987C24.7951 31.624 24.3001 31.437 23.7941 31.437C23.1451 31.437 22.6611 31.811 22.6611 32.394C22.6611 32.966 23.1451 33.34 23.7941 33.34C24.3001 33.34 24.7951 33.153 25.0591 32.79ZM27.8216 34V28.687H28.9766V29.468C29.3726 28.962 30.0106 28.566 30.7036 28.566V29.71C30.6046 29.688 30.4836 29.677 30.3406 29.677C29.8566 29.677 29.2076 30.007 28.9766 30.381V34H27.8216ZM35.485 34V33.274C35.078 33.802 34.462 34.132 33.78 34.132C32.416 34.132 31.415 33.098 31.415 31.349C31.415 29.633 32.405 28.555 33.78 28.555C34.44 28.555 35.056 28.863 35.485 29.424V26.663H36.64V34H35.485ZM35.485 32.405V30.293C35.221 29.897 34.66 29.578 34.11 29.578C33.197 29.578 32.614 30.315 32.614 31.349C32.614 32.372 33.197 33.109 34.11 33.109C34.66 33.109 35.221 32.801 35.485 32.405ZM37.7846 33.307L38.3126 32.471C38.6866 32.856 39.4236 33.219 40.1166 33.219C40.8096 33.219 41.1616 32.966 41.1616 32.57C41.1616 32.108 40.6006 31.943 39.9516 31.8C39.0386 31.602 37.9496 31.36 37.9496 30.172C37.9496 29.303 38.6976 28.555 40.0396 28.555C40.9416 28.555 41.6236 28.874 42.1076 29.303L41.6236 30.117C41.3046 29.754 40.7106 29.479 40.0506 29.479C39.4456 29.479 39.0606 29.699 39.0606 30.073C39.0606 30.48 39.5886 30.623 40.2156 30.766C41.1396 30.964 42.2726 31.228 42.2726 32.482C42.2726 33.417 41.4916 34.132 40.0616 34.132C39.1596 34.132 38.3346 33.846 37.7846 33.307Z" fill="url(#paint1_linear_664_2611)"/>
<defs>
<linearGradient id="paint0_linear_664_2611" x1="4" y1="10" x2="6.80321" y2="29.3802" gradientUnits="userSpaceOnUse">
<stop stop-color="#9D6822"/>
<stop offset="1" stop-color="#CB8F3F"/>
</linearGradient>
<linearGradient id="paint1_linear_664_2611" x1="4" y1="24.5" x2="8.63471" y2="42.9054" gradientUnits="userSpaceOnUse">
<stop stop-color="#9D6822"/>
<stop offset="1" stop-color="#CB8F3F"/>
</linearGradient>
</defs>
</svg>
