<svg width="40" height="40" viewBox="0 0 40 40" fill="none" xmlns="http://www.w3.org/2000/svg">
<g clip-path="url(#clip0_1765_4735)">
<path d="M38.3317 13.3366V30.0033C38.3317 31.8366 36.8317 33.3366 34.9984 33.3366H8.33171C7.41504 33.3366 6.66504 32.5866 6.66504 31.6699C6.66504 30.7533 7.41504 30.0033 8.33171 30.0033H34.9984V13.3366C34.9984 12.4199 35.7484 11.6699 36.665 11.6699C37.5817 11.6699 38.3317 12.4199 38.3317 13.3366ZM6.66504 26.6699C3.89837 26.6699 1.66504 24.4366 1.66504 21.6699V11.6699C1.66504 8.90326 3.89837 6.66992 6.66504 6.66992H26.665C29.4317 6.66992 31.665 8.90326 31.665 11.6699V23.3366C31.665 25.1699 30.165 26.6699 28.3317 26.6699H6.66504ZM11.665 16.6699C11.665 19.4366 13.8984 21.6699 16.665 21.6699C19.4317 21.6699 21.665 19.4366 21.665 16.6699C21.665 13.9033 19.4317 11.6699 16.665 11.6699C13.8984 11.6699 11.665 13.9033 11.665 16.6699Z" fill="url(#paint0_linear_1765_4735)"/>
</g>
<defs>
<linearGradient id="paint0_linear_1765_4735" x1="-3.33496" y1="5.00326" x2="44.9984" y2="36.6699" gradientUnits="userSpaceOnUse">
<stop stop-color="#213AC1"/>
<stop offset="0.963542" stop-color="#5670FB"/>
</linearGradient>
<clipPath id="clip0_1765_4735">
<rect width="40" height="40" fill="white"/>
</clipPath>
</defs>
</svg>
