<svg width="24" height="24" viewBox="0 0 24 24" fill="none" xmlns="http://www.w3.org/2000/svg">
<mask id="mask0_667_1624" style="mask-type:alpha" maskUnits="userSpaceOnUse" x="0" y="0" width="24" height="24">
<rect width="24" height="24" fill="#D9D9D9"/>
</mask>
<g mask="url(#mask0_667_1624)">
<path d="M13.5252 21.4753L6.6252 14.1505V11.6257H10.5996C11.3164 11.6257 11.9584 11.4297 12.5256 11.0377C13.092 10.6457 13.4168 10.1333 13.5 9.5005H5.6748V6.7501H13.2996C13.05 6.2669 12.6708 5.9001 12.162 5.6497C11.654 5.4001 11.1 5.2753 10.5 5.2753H5.6748V2.5249H18.3252V5.2753H15.2256C15.4256 5.4249 15.6296 5.6373 15.8376 5.9125C16.0456 6.1877 16.1912 6.4669 16.2744 6.7501H18.3252V9.5005H16.3248C16.1584 10.8669 15.5628 12.0085 14.538 12.9253C13.5124 13.8421 12.2996 14.3169 10.8996 14.3497H10.6248L17.3748 21.4753H13.5252Z" fill="#F6A19E"/>
</g>
</svg>
