<svg width="24" height="24" viewBox="0 0 24 24" fill="none" xmlns="http://www.w3.org/2000/svg">
<path d="M12 7V5C12 3.9 11.1 3 10 3H4C2.9 3 2 3.9 2 5V19C2 20.1 2.9 21 4 21H18C19.1 21 20 20.1 20 19V9C20 7.9 19.1 7 18 7H12ZM6 19H4V17H6V19ZM6 15H4V13H6V15ZM6 11H4V9H6V11ZM6 7H4V5H6V7ZM20 19H12V9H20V19ZM18 11H14V13H18V11ZM18 15H14V17H18V15Z" fill="#F6A19E"/>
<rect x="12" y="8" width="8" height="12" rx="1" fill="#F6A19E"/>
<rect x="12" y="7" width="1" height="14" fill="#F7F8FC"/>
<rect x="8" y="5" width="2" height="2" fill="#F7F8FC"/>
<rect x="8" y="9" width="2" height="2" fill="#F7F8FC"/>
<rect x="8" y="13" width="2" height="2" fill="#F7F8FC"/>
<rect x="8" y="17" width="2" height="2" fill="#F7F8FC"/>
</svg>
