<svg width="24" height="24" viewBox="0 0 24 24" fill="none" xmlns="http://www.w3.org/2000/svg">
<path d="M8.13045 5.79236H15.436L17.2446 2.17556C17.3473 1.9708 17.3128 1.72353 17.1573 1.55481C17.0021 1.38627 16.7587 1.33119 16.546 1.41676C13.9258 2.4624 12.7422 1.93755 11.4905 1.37906C10.241 0.820565 8.94958 0.246033 6.5688 1.43505C6.43796 1.50047 6.33835 1.61524 6.29197 1.75421C6.24576 1.89318 6.25648 2.04472 6.32209 2.17556L8.13045 5.79236Z" fill="#46BD8C"/>
<path d="M15.7057 6.89625H7.86694C3.78352 12.0284 2.03599 17.487 3.52568 20.7273C4.09823 21.9714 5.42087 23.4546 8.47146 23.4546H15.0949C18.5503 23.4546 19.9626 21.9616 20.5383 20.7101C21.953 17.634 20.0535 12.2891 15.7057 6.89625Z" fill="#46BD8C"/>
<path d="M11.3508 17.3313L12.5457 16.9286C12.3577 16.7943 12.2503 16.5392 12.2503 16.3244C12.2503 15.1295 14.6401 14.9684 14.6401 12.9814C14.6401 11.7731 13.6063 10.8735 11.9147 10.8735C10.7063 10.8735 9.67255 11.3569 8.98784 12.2027L9.90079 13.2096C10.3438 12.6323 10.9346 12.2698 11.767 12.2698C12.6262 12.2698 13.0424 12.7129 13.0424 13.2365C13.0424 14.3777 10.8809 14.5388 10.8809 16.1767C10.8809 16.6198 11.0286 17.0225 11.3508 17.3313ZM11.8341 20.1105C12.3443 20.1105 12.7739 19.6674 12.7739 19.1572C12.7739 18.6605 12.3443 18.2309 11.8341 18.2309C11.3239 18.2309 10.8943 18.6605 10.8943 19.1572C10.8943 19.6674 11.3239 20.1105 11.8341 20.1105Z" fill="white"/>
</svg>
